<svg width="44" height="46" viewBox="0 0 44 46" fill="none" xmlns="http://www.w3.org/2000/svg">
<path d="M14.7169 35.7039C14.7169 35.8836 14.5129 36.0273 14.2556 36.0273C13.9629 36.0543 13.7589 35.9105 13.7589 35.7039C13.7589 35.5242 13.9629 35.3805 14.2202 35.3805C14.4863 35.3535 14.7169 35.4973 14.7169 35.7039ZM11.9581 35.2996C11.896 35.4793 12.0734 35.6859 12.3395 35.7398C12.5702 35.8297 12.8363 35.7398 12.8895 35.5602C12.9427 35.3805 12.7742 35.1738 12.5081 35.093C12.2774 35.0301 12.0202 35.1199 11.9581 35.2996ZM15.879 35.1469C15.6218 35.2098 15.4444 35.3805 15.471 35.5871C15.4976 35.7668 15.7282 35.8836 15.9944 35.8207C16.2516 35.7578 16.429 35.5871 16.4024 35.4074C16.3758 35.2367 16.1363 35.1199 15.879 35.1469ZM21.7161 0.71875C9.4121 0.71875 0 10.1793 0 22.6406C0 32.6043 6.19194 41.1305 15.0363 44.1313C16.1718 44.3379 16.571 43.6281 16.571 43.0441C16.571 42.4871 16.5444 39.4145 16.5444 37.5277C16.5444 37.5277 10.3347 38.8754 9.03065 34.8504C9.03065 34.8504 8.01935 32.2359 6.56452 31.5621C6.56452 31.5621 4.53306 30.1516 6.70645 30.1785C6.70645 30.1785 8.91532 30.3582 10.1306 32.4965C12.0734 35.9645 15.329 34.9672 16.5976 34.3742C16.8016 32.9367 17.3782 31.9395 18.0169 31.3465C13.0581 30.7895 8.05484 30.0617 8.05484 21.4188C8.05484 18.948 8.72903 17.7082 10.1484 16.127C9.91774 15.543 9.16371 13.1352 10.379 10.0266C12.2331 9.44258 16.5 12.4523 16.5 12.4523C18.2742 11.9492 20.1815 11.6887 22.071 11.6887C23.9605 11.6887 25.8677 11.9492 27.6419 12.4523C27.6419 12.4523 31.9089 9.43359 33.7629 10.0266C34.9782 13.1441 34.2242 15.543 33.9935 16.127C35.4129 17.7172 36.2823 18.957 36.2823 21.4188C36.2823 30.0887 31.0573 30.7805 26.0984 31.3465C26.9145 32.0563 27.6065 33.4039 27.6065 35.5152C27.6065 38.543 27.5798 42.2895 27.5798 43.0262C27.5798 43.6102 27.9879 44.3199 29.1145 44.1133C37.9855 41.1305 44 32.6043 44 22.6406C44 10.1793 34.0202 0.71875 21.7161 0.71875ZM8.62258 31.7059C8.50726 31.7957 8.53387 32.0023 8.68468 32.173C8.82661 32.3168 9.03064 32.3797 9.14597 32.2629C9.26129 32.173 9.23468 31.9664 9.08387 31.7957C8.94194 31.652 8.7379 31.5891 8.62258 31.7059ZM7.66452 30.9781C7.60242 31.0949 7.69113 31.2387 7.86855 31.3285C8.01048 31.4184 8.1879 31.3914 8.25 31.2656C8.3121 31.1488 8.22339 31.0051 8.04597 30.9152C7.86855 30.8613 7.72661 30.8883 7.66452 30.9781ZM10.5387 34.1766C10.3968 34.2934 10.45 34.5629 10.654 34.7336C10.8581 34.9402 11.1153 34.9672 11.2306 34.8234C11.346 34.7066 11.2927 34.4371 11.1153 34.2664C10.9202 34.0598 10.654 34.0328 10.5387 34.1766ZM9.52742 32.8559C9.38548 32.9457 9.38548 33.1793 9.52742 33.3859C9.66935 33.5926 9.90887 33.6824 10.0242 33.5926C10.1661 33.4758 10.1661 33.2422 10.0242 33.0355C9.9 32.8289 9.66935 32.7391 9.52742 32.8559Z" fill="white"/>
</svg>
