<svg width="56" height="39" viewBox="0 0 56 39" fill="none" xmlns="http://www.w3.org/2000/svg">
<g clip-path="url(#clip0_9_8)">
<path d="M49.4231 38.691H3.34284C1.55605 38.691 0.0513916 37.2845 0.0513916 35.5151V3.39251C0.0513916 1.66842 1.50903 0.216553 3.34284 0.216553H49.4231C51.2099 0.216553 52.7146 1.62305 52.7146 3.39251V35.5151C52.7146 37.2845 51.257 38.691 49.4231 38.691Z" fill="white"/>
<path d="M0.571631 3.03572L0.571733 3.03574L0.572926 3.02567C0.622379 2.60844 0.779729 2.20042 1.05903 1.83717C1.97268 0.648948 3.78629 0.366453 5.07873 1.26196C5.07908 1.2622 5.07943 1.26245 5.07979 1.26269L26.0958 16.0067L26.3838 16.2087L26.6712 16.0059L47.8305 1.07892L47.8334 1.0769C49.0692 0.192194 50.8304 0.461298 51.7494 1.69497L51.7493 1.695L51.754 1.70106C52.2358 2.32775 52.3824 3.09008 52.2263 3.79971L52.2146 3.85281V3.90717V35.5605C52.2146 36.9872 51.0026 38.1911 49.4231 38.1911H46.6317V9.53222V8.57142L45.8448 9.12272L26.3359 22.7907L6.92114 9.19201L6.13429 8.64088V9.60155V38.1911H3.34284C1.76819 38.1911 0.551392 36.9918 0.551392 35.5152V3.34723C0.551392 3.23303 0.558577 3.12954 0.571631 3.03572Z" fill="#001E11" stroke="#F0EBEB"/>
</g>
<defs>
<clipPath id="clip0_9_8">
<rect width="55.2" height="38.7368" fill="white" transform="translate(0 0.0351562)"/>
</clipPath>
</defs>
</svg>
