<svg width="44" height="46" viewBox="0 0 44 46" fill="none" xmlns="http://www.w3.org/2000/svg">
<g clip-path="url(#clip0_9_6)">
<path d="M37.4862 38.6314H30.9705V28.332C30.9705 25.876 30.921 22.7153 27.5752 22.7153C24.178 22.7153 23.6592 25.3877 23.6592 28.1507V38.6314H17.1435V17.4519H23.4025V20.3388H23.4868C24.3613 18.6743 26.488 16.9174 29.6652 16.9174C36.267 16.9174 37.488 21.3005 37.488 27.0059V38.6314H37.4862ZM9.7845 14.5538C7.68717 14.5538 6.00233 12.8413 6.00233 10.7348C6.00233 8.63016 7.689 6.91945 9.7845 6.91945C11.8745 6.91945 13.5685 8.63016 13.5685 10.7348C13.5685 12.8413 11.8727 14.5538 9.7845 14.5538ZM13.0515 38.6314H6.5175V17.4519H13.0515V38.6314ZM40.7458 0.807129H3.24683C1.452 0.807129 0 2.23858 0 4.00477V41.9955C0 43.7635 1.452 45.1931 3.24683 45.1931H40.7403C42.5333 45.1931 44 43.7635 44 41.9955V4.00477C44 2.23858 42.5333 0.807129 40.7403 0.807129H40.7458Z" fill="white"/>
</g>
<defs>
<clipPath id="clip0_9_6">
<rect width="44" height="44.386" fill="white" transform="translate(0 0.807129)"/>
</clipPath>
</defs>
</svg>
